<svg id="Layer_1" data-name="Layer 1" xmlns="http://www.w3.org/2000/svg" viewBox="0 0 47.63 47.63"><defs><style>.cls-1{fill:#3ac}</style></defs><title>Icons11</title><path class="cls-1" d="M1115.86 435.24a23.81 23.81 0 1 0 23.81 23.81 23.81 23.81 0 0 0-23.81-23.81zm-10.18 32.12a1.51 1.51 0 0 1-1.06.44 1.5 1.5 0 0 1-1.5-1.5 1.52 1.52 0 0 1 .44-1.06 1.57 1.57 0 0 1 2.12 0 1.52 1.52 0 0 1 .44 1.06 1.5 1.5 0 0 1-.44 1.06zm0-7.5a1.51 1.51 0 0 1-1.06.44 1.48 1.48 0 0 1-1.06-.44 1.5 1.5 0 0 1-.44-1.06 1.52 1.52 0 0 1 .44-1.06 1.56 1.56 0 0 1 2.12 0 1.52 1.52 0 0 1 .44 1.06 1.5 1.5 0 0 1-.44 1.06zm0-7.5a1.51 1.51 0 0 1-1.06.44 1.49 1.49 0 0 1-1.5-1.5 1.52 1.52 0 0 1 .44-1.06 1.55 1.55 0 0 1 2.12 0 1.5 1.5 0 0 1 0 2.12zm20.94 15.44h-16a1.5 1.5 0 0 1 0-3h16a1.5 1.5 0 0 1 0 3zm0-7.5h-16a1.5 1.5 0 0 1 0-3h16a1.5 1.5 0 0 1 0 3zm0-7.5h-16a1.5 1.5 0 0 1 0-3h16a1.5 1.5 0 0 1 0 3z" transform="translate(-1092.04 -435.24)"/></svg>