<svg id="Layer_1" data-name="Layer 1" xmlns="http://www.w3.org/2000/svg" viewBox="0 0 47.63 47.63"><defs><style>.cls-1{fill:#3ac}</style></defs><title>Icons2</title><path class="cls-1" d="M318.23 424.87A23.81 23.81 0 1 0 342 448.68a23.81 23.81 0 0 0-23.77-23.81zm-5.29 28.54a1.5 1.5 0 1 1-2 2.21l-6-5.5a1.5 1.5 0 0 1 0-2.21l6-5.5a1.5 1.5 0 0 1 2 2.21l-4.78 4.4zm9.42-11.85l-3.71 15.6a1.5 1.5 0 0 1-1.46 1.15 1.47 1.47 0 0 1-.35 0 1.5 1.5 0 0 1-1.11-1.81l3.71-15.6a1.5 1.5 0 1 1 2.92.66zm9.58 8.56l-6 5.5a1.5 1.5 0 0 1-2-2.21l4.78-4.4-4.78-4.4a1.5 1.5 0 0 1 2-2.21l6 5.5a1.5 1.5 0 0 1 0 2.21z" transform="translate(-294.42 -424.87)"/></svg>