<svg xmlns="http://www.w3.org/2000/svg" xmlns:xlink="http://www.w3.org/1999/xlink" width="300" height="300" viewBox="0 0 300 300"><defs><circle id="a" cx="150" cy="150" r="150"/><linearGradient id="b" x1="50%" x2="50%" y1="0%" y2="100%"><stop offset="0%" stop-color="#B8BCF9"/><stop offset="100%" stop-color="#988DE6"/></linearGradient></defs><g fill="none" fill-rule="evenodd"><mask id="c" fill="#fff"><use xlink:href="#a"/></mask><use fill="#D8D8D8" xlink:href="#a"/><g fill="url(#b)" mask="url(#c)"><path d="M0 0h300v300H0z"/></g><path fill="#FFF" d="M148.97 188.898a287.584 287.584 0 0 0 54.69-4.617 63.919 63.919 0 0 0 19.273-6.359v25.823c0 8.615-33.114 15.591-73.962 15.591-40.849 0-73.961-6.976-73.961-15.59v-25.824a63.904 63.904 0 0 0 19.273 6.359 287.567 287.567 0 0 0 54.688 4.617zm0-40.701a287.429 287.429 0 0 0 54.638-4.566 63.894 63.894 0 0 0 19.272-6.359v24.848h-.414c0 4.36-25.816 12.874-73.495 12.874-47.678 0-73.547-8.49-73.547-12.823h-.414v-24.899a63.91 63.91 0 0 0 19.273 6.308 287.567 287.567 0 0 0 54.688 4.617zm73.936-57.606a3.29 3.29 0 0 1-.026.461c.013.172.013.341 0 .513v28.207h-.414c0 4.358-25.816 12.872-73.495 12.872-47.678 0-73.547-8.487-73.547-12.82h-.414V91.615a3.275 3.275 0 0 1 0-.511 3.317 3.317 0 0 1 0-.514c0-8.615 33.139-15.59 73.96-15.59 40.824 0 73.936 6.975 73.936 15.59z" mask="url(#c)"/></g></svg>